<svg width="132" height="70" viewBox="0 0 132 70" fill="none" xmlns="http://www.w3.org/2000/svg">
<path d="M32.2823 37.3169C32.2823 38.628 31.7266 39.7333 30.6138 40.6344C29.5009 41.5355 28.1013 41.986 26.4132 41.986C24.943 41.986 23.6529 41.5911 22.5401 40.8041C21.4273 40.0157 20.6343 38.9764 20.1567 37.6864L22.6002 36.6111C22.9576 37.5122 23.4787 38.2135 24.165 38.7151C24.8499 39.2167 25.5993 39.4675 26.4147 39.4675C27.2888 39.4675 28.0187 39.2738 28.6044 38.8833C29.1901 38.4944 29.4829 38.0333 29.4829 37.5017C29.4829 36.539 28.768 35.8332 27.3383 35.3826L24.8363 34.7384C21.9964 34.001 20.5757 32.5878 20.5757 30.5003C20.5757 29.1291 21.1164 28.0283 22.1992 27.1993C23.282 26.3703 24.6666 25.9558 26.3547 25.9558C27.6447 25.9558 28.8131 26.2742 29.8554 26.908C30.8976 27.5432 31.6275 28.3933 32.045 29.4565L29.6015 30.5003C29.3237 29.8665 28.8717 29.3694 28.2454 29.0105C27.6192 28.6531 26.9193 28.4729 26.1444 28.4729C25.4296 28.4729 24.7883 28.6576 24.2221 29.0255C23.6559 29.3935 23.3736 29.8455 23.3736 30.3771C23.3736 31.2377 24.1575 31.8519 25.7269 32.2198L27.9315 32.804C30.8315 33.5414 32.2808 35.0462 32.2808 37.3184L32.2823 37.3169Z" fill="#1A1E51"/>
<path d="M33.9195 19.5041H36.6603V26.4454L36.5416 28.5344H36.6603C37.0778 27.797 37.7175 27.1827 38.5826 26.6917C39.4461 26.2006 40.3442 25.9543 41.2783 25.9543C43.0654 25.9543 44.4411 26.4814 45.4037 27.5357C46.3664 28.5899 46.8484 30.0902 46.8484 32.0351V41.4949H44.1077V32.5877C44.1077 29.8845 42.9453 28.5344 40.622 28.5344C39.5092 28.5344 38.5705 29.0104 37.8061 29.9626C37.0417 30.9147 36.6587 32.026 36.6587 33.2951V41.4949H33.918V19.5056L33.9195 19.5041Z" fill="#1A1E51"/>
<path d="M55.8757 41.9844C53.7311 41.9844 51.962 41.2275 50.5728 39.7122C49.1821 38.1969 48.4868 36.2836 48.4868 33.9694C48.4868 31.6551 49.1611 29.7673 50.5127 28.2415C51.8629 26.7172 53.5914 25.9543 55.6954 25.9543C57.7995 25.9543 59.5836 26.6766 60.8646 28.1198C62.1457 29.5631 62.7854 31.586 62.7854 34.1856L62.7554 34.492H51.2862C51.3252 35.9652 51.8028 37.1532 52.7159 38.0542C53.629 38.9553 54.7223 39.4059 55.9928 39.4059C57.7409 39.4059 59.1105 38.5048 60.1032 36.7041L62.5466 37.9326C61.8904 39.2016 60.9818 40.1958 59.8209 40.9122C58.6585 41.6285 57.3429 41.9874 55.8742 41.9874L55.8757 41.9844ZM51.4964 32.1567H59.8674C59.7878 31.1129 59.3763 30.2479 58.6315 29.5616C57.8866 28.8753 56.8894 28.5328 55.6369 28.5328C54.6036 28.5328 53.7146 28.8602 52.9697 29.515C52.2248 30.1713 51.7337 31.0514 51.4949 32.1567H51.4964Z" fill="#1A1E51"/>
<path d="M72.2607 41.9845C71.1884 41.9845 70.2092 41.7487 69.3262 41.2786C68.4416 40.8086 67.7613 40.1838 67.2852 39.4044H67.1666V41.4934H64.5444V19.5041H67.2852V26.4454L67.1666 28.5344H67.2852C67.7613 27.7564 68.4416 27.1317 69.3262 26.6601C70.2092 26.1901 71.1884 25.9543 72.2607 25.9543C74.186 25.9543 75.8154 26.7322 77.146 28.2881C78.5157 29.865 79.202 31.7587 79.202 33.9694C79.202 36.18 78.5172 38.0948 77.146 39.6507C75.8154 41.2065 74.186 41.9845 72.2607 41.9845ZM71.8146 39.4044C73.1257 39.4044 74.228 38.8923 75.1216 37.8695C76.0152 36.8663 76.4627 35.5658 76.4627 33.9694C76.4627 32.373 76.0152 31.0934 75.1216 30.0692C74.228 29.045 73.1257 28.5344 71.8146 28.5344C70.5036 28.5344 69.3712 29.0465 68.4776 30.0692C67.6036 31.0934 67.1666 32.394 67.1666 33.9694C67.1666 35.5448 67.6036 36.8769 68.4776 37.9011C69.3712 38.9043 70.484 39.4059 71.8146 39.4059V39.4044Z" fill="#1A1E51"/>
<path d="M86.5006 25.9528C88.5265 25.9528 90.1244 26.5115 91.2973 27.6258C92.4687 28.7417 93.0544 30.272 93.0544 32.2168V41.4919H90.4338V39.4029H90.3151C89.1828 41.1225 87.6735 41.983 85.7872 41.983C84.1788 41.983 82.8332 41.4919 81.7504 40.5083C80.6676 39.5261 80.127 38.2976 80.127 36.8228C80.127 35.267 80.6976 34.028 81.8405 33.1074C82.9819 32.1853 84.5062 31.7257 86.4135 31.7257C88.0414 31.7257 89.3825 32.0336 90.4353 32.6478V32.0021C90.4353 31.0199 90.0568 30.1849 89.3029 29.4986C88.5475 28.8122 87.6645 28.4698 86.6523 28.4698C85.1234 28.4698 83.9115 29.1351 83.0179 30.4657L80.6045 28.8994C81.9351 26.9335 83.901 25.9513 86.5036 25.9513L86.5006 25.9528ZM82.9548 36.8874C82.9548 37.6248 83.2567 38.239 83.8634 38.7301C84.4687 39.2212 85.179 39.4675 85.993 39.4675C87.1449 39.4675 88.1721 39.0275 89.0762 38.1474C89.9802 37.2674 90.4323 36.2326 90.4323 35.0462C89.5778 34.3509 88.3868 34.0025 86.8565 34.0025C85.7437 34.0025 84.8156 34.2788 84.0707 34.8315C83.3258 35.3841 82.9533 36.0704 82.9533 36.8889L82.9548 36.8874Z" fill="#1A1E51"/>
<path d="M78.6387 47.7409L76.6864 44.886H78.1011L79.4362 46.939L80.7773 44.886H82.186L80.2231 47.7409L82.2866 50.728H80.8674L79.4377 48.5384L78.0019 50.728H76.5933L78.6417 47.7409H78.6387Z" fill="#1A1E51"/>
<path d="M82.4165 44.886H83.7681L84.9666 48.2215C85.0191 48.3732 85.0672 48.5218 85.1122 48.6675C85.1558 48.8132 85.1948 48.9574 85.2279 49.097C85.2609 49.2382 85.2879 49.3779 85.309 49.519H85.3405C85.375 49.3358 85.4261 49.1316 85.4907 48.9048C85.5553 48.678 85.6288 48.4498 85.7099 48.2215L86.8603 44.886H88.1954L85.6889 51.5314C85.5447 51.9114 85.3675 52.2358 85.1588 52.5046C84.95 52.7734 84.7022 52.9777 84.4169 53.1173C84.1316 53.2555 83.8057 53.3261 83.4407 53.3261C83.265 53.3261 83.1118 53.3171 82.9812 53.2976C82.8505 53.278 82.7394 53.2585 82.6493 53.2375V52.2448C82.7229 52.2628 82.816 52.2778 82.9286 52.2929C83.0413 52.3064 83.1569 52.3139 83.277 52.3139C83.4993 52.3139 83.69 52.2703 83.8522 52.1817C84.0144 52.0931 84.1511 51.97 84.2637 51.8093C84.3763 51.6486 84.4695 51.4669 84.543 51.2626L84.7488 50.7145L82.4165 44.8875V44.886Z" fill="#1A1E51"/>
<path d="M92.994 50.7281H88.5547V49.9622L91.5042 45.8397H88.7334V44.8846H92.9084V45.7286L90.0159 49.7714H92.9925V50.7266L92.994 50.7281Z" fill="#1A1E51"/>
<path d="M111.048 21.7208C109.279 17.717 105.186 16.2708 105.017 16.2122L68.3667 3.49496L68.2691 3.46492C65.0748 2.61791 62.4436 2.92878 60.4477 4.39304C57.4366 6.60218 57.1257 10.6195 57.1002 11.043C57.0702 11.4139 56.6151 17.0442 56.067 23.8308C57.0146 23.8428 57.9292 23.984 58.7957 24.2393C59.3649 17.2019 59.8365 11.3614 59.8455 11.2457L59.8485 11.2022C59.85 11.1706 60.0362 8.09647 62.0877 6.60218C63.3687 5.66956 65.1934 5.50437 67.5122 6.11109L104.111 18.8103C104.143 18.8208 107.271 19.9547 108.538 22.8546C109.399 24.8235 109.237 27.2189 108.056 29.9747C105.587 34.7384 91.8518 61.3532 91.7182 61.6115C91.7122 61.622 91.1264 62.6898 89.8529 63.4542C88.1754 64.4619 86.0789 64.5145 83.622 63.6149C80.6874 62.3654 63.4303 54.9706 63.2561 54.8955L63.1705 54.8594L63.0894 54.8354C62.8191 54.7573 56.4815 52.82 57.1948 44.006C56.7833 44.057 56.3643 44.0871 55.9378 44.0871C55.4272 44.0871 54.9271 44.048 54.4375 43.9759C54.0335 49.6227 56.1391 52.9807 57.9923 54.8084C59.82 56.6105 61.7633 57.3059 62.2409 57.4561C63.4453 57.9727 79.8254 64.9906 82.5767 66.162L82.6398 66.186C84.2272 66.7717 85.6284 67 86.8493 67C88.8542 67 90.3725 66.3842 91.4238 65.7205C93.256 64.5656 94.0745 63.0533 94.1616 62.8836C94.3012 62.6132 108.122 35.8347 110.527 31.1971L110.569 31.1085C112.087 27.5913 112.249 24.43 111.051 21.7163L111.048 21.7208Z" fill="url(#paint0_linear_249_3)"/>
<defs>
<linearGradient id="paint0_linear_249_3" x1="83.1129" y1="3.00087" x2="83.1129" y2="67.0045" gradientUnits="userSpaceOnUse">
<stop stop-color="#3397FF"/>
<stop offset="0.05" stop-color="#3A8EFB"/>
<stop offset="0.13" stop-color="#4F75F3"/>
<stop offset="0.23" stop-color="#704DE5"/>
<stop offset="0.35" stop-color="#9E17D2"/>
<stop offset="0.4" stop-color="#B200CA"/>
<stop offset="0.46" stop-color="#B500C4"/>
<stop offset="0.54" stop-color="#BF00B3"/>
<stop offset="0.64" stop-color="#CF0098"/>
<stop offset="0.74" stop-color="#E60073"/>
<stop offset="0.77" stop-color="#EE0066"/>
<stop offset="0.83" stop-color="#EE0364"/>
<stop offset="0.88" stop-color="#EE0D5E"/>
<stop offset="0.93" stop-color="#EE1E55"/>
<stop offset="0.97" stop-color="#EE3547"/>
<stop offset="1" stop-color="#EE4B3C"/>
</linearGradient>
</defs>
</svg>
